<svg width="45" height="44" viewBox="0 0 45 44" fill="none" xmlns="http://www.w3.org/2000/svg">
<rect x="0.970703" width="44" height="44" rx="22" fill="#2196F3"/>
<path d="M16.9707 31V18C16.9707 17.4696 17.1814 16.9609 17.5565 16.5858C17.9316 16.2107 18.4403 16 18.9707 16L26.9707 13V16C27.5011 16 28.0098 16.2107 28.3849 16.5858C28.76 16.9609 28.9707 17.4696 28.9707 18V31H22.9707V26H18.9707V31H16.9707ZM24.9707 29H26.9707V26H24.9707V29ZM18.9707 23H20.9707V19H18.9707V23ZM22.9707 23H26.9707V19H22.9707V23Z" fill="white"/>
</svg>
