<svg width="178" height="44" viewBox="0 0 178 44" fill="none" xmlns="http://www.w3.org/2000/svg">
<rect x="0.970703" width="44" height="44" rx="22" fill="#2196F3"/>
<path d="M16.9707 31V18C16.9707 17.4696 17.1814 16.9609 17.5565 16.5858C17.9316 16.2107 18.4403 16 18.9707 16L26.9707 13V16C27.5011 16 28.0098 16.2107 28.3849 16.5858C28.76 16.9609 28.9707 17.4696 28.9707 18V31H22.9707V26H18.9707V31H16.9707ZM24.9707 29H26.9707V26H24.9707V29ZM18.9707 23H20.9707V19H18.9707V23ZM22.9707 23H26.9707V19H22.9707V23Z" fill="white"/>
<path d="M63.6187 30.592C63.2667 30.592 62.9707 30.472 62.7307 30.232C62.4907 29.992 62.3707 29.696 62.3707 29.344V13.096C62.3707 12.728 62.4907 12.432 62.7307 12.208C62.9707 11.968 63.2667 11.848 63.6187 11.848H67.9627C69.3387 11.848 70.5867 12.08 71.7067 12.544C72.8427 12.992 73.8267 13.64 74.6587 14.488C75.4907 15.32 76.1307 16.304 76.5787 17.44C77.0267 18.576 77.2507 19.832 77.2507 21.208C77.2507 22.584 77.0267 23.848 76.5787 25C76.1307 26.136 75.4907 27.128 74.6587 27.976C73.8267 28.808 72.8427 29.456 71.7067 29.92C70.5867 30.368 69.3387 30.592 67.9627 30.592H63.6187ZM64.8667 28.384H67.9627C69.3067 28.384 70.4907 28.08 71.5147 27.472C72.5547 26.848 73.3707 26 73.9627 24.928C74.5547 23.84 74.8507 22.6 74.8507 21.208C74.8507 19.8 74.5547 18.56 73.9627 17.488C73.3707 16.416 72.5547 15.576 71.5147 14.968C70.4907 14.36 69.3067 14.056 67.9627 14.056H64.8667V28.384ZM86.8796 30.688C85.5836 30.688 84.4396 30.408 83.4476 29.848C82.4556 29.272 81.6716 28.488 81.0956 27.496C80.5356 26.488 80.2556 25.336 80.2556 24.04C80.2556 22.728 80.5356 21.576 81.0956 20.584C81.6716 19.576 82.4556 18.792 83.4476 18.232C84.4396 17.656 85.5836 17.368 86.8796 17.368C88.1596 17.368 89.2956 17.656 90.2876 18.232C91.2796 18.792 92.0556 19.576 92.6156 20.584C93.1916 21.576 93.4796 22.728 93.4796 24.04C93.4796 25.336 93.1996 26.488 92.6396 27.496C92.0796 28.488 91.3036 29.272 90.3116 29.848C89.3196 30.408 88.1756 30.688 86.8796 30.688ZM86.8796 28.528C87.7116 28.528 88.4476 28.336 89.0876 27.952C89.7276 27.568 90.2236 27.04 90.5756 26.368C90.9436 25.696 91.1276 24.92 91.1276 24.04C91.1276 23.16 90.9436 22.384 90.5756 21.712C90.2236 21.024 89.7276 20.488 89.0876 20.104C88.4476 19.72 87.7116 19.528 86.8796 19.528C86.0476 19.528 85.3116 19.72 84.6716 20.104C84.0316 20.488 83.5276 21.024 83.1596 21.712C82.7916 22.384 82.6076 23.16 82.6076 24.04C82.6076 24.92 82.7916 25.696 83.1596 26.368C83.5276 27.04 84.0316 27.568 84.6716 27.952C85.3116 28.336 86.0476 28.528 86.8796 28.528ZM103.075 30.688C101.779 30.688 100.635 30.408 99.6429 29.848C98.6509 29.272 97.8669 28.488 97.2909 27.496C96.7309 26.488 96.4509 25.336 96.4509 24.04C96.4509 22.728 96.7309 21.576 97.2909 20.584C97.8669 19.576 98.6509 18.792 99.6429 18.232C100.635 17.656 101.779 17.368 103.075 17.368C104.355 17.368 105.491 17.656 106.483 18.232C107.475 18.792 108.251 19.576 108.811 20.584C109.387 21.576 109.675 22.728 109.675 24.04C109.675 25.336 109.395 26.488 108.835 27.496C108.275 28.488 107.499 29.272 106.507 29.848C105.515 30.408 104.371 30.688 103.075 30.688ZM103.075 28.528C103.907 28.528 104.643 28.336 105.283 27.952C105.923 27.568 106.419 27.04 106.771 26.368C107.139 25.696 107.323 24.92 107.323 24.04C107.323 23.16 107.139 22.384 106.771 21.712C106.419 21.024 105.923 20.488 105.283 20.104C104.643 19.72 103.907 19.528 103.075 19.528C102.243 19.528 101.507 19.72 100.867 20.104C100.227 20.488 99.7229 21.024 99.3549 21.712C98.9869 22.384 98.8029 23.16 98.8029 24.04C98.8029 24.92 98.9869 25.696 99.3549 26.368C99.7229 27.04 100.227 27.568 100.867 27.952C101.507 28.336 102.243 28.528 103.075 28.528ZM114.494 22.384C114.494 21.424 114.726 20.568 115.19 19.816C115.67 19.048 116.31 18.44 117.11 17.992C117.91 17.544 118.79 17.32 119.75 17.32C120.71 17.32 121.422 17.48 121.886 17.8C122.366 18.104 122.55 18.472 122.438 18.904C122.39 19.128 122.294 19.304 122.15 19.432C122.022 19.544 121.87 19.616 121.694 19.648C121.518 19.68 121.326 19.672 121.118 19.624C120.094 19.416 119.174 19.4 118.358 19.576C117.542 19.752 116.894 20.08 116.414 20.56C115.95 21.04 115.718 21.648 115.718 22.384H114.494ZM114.518 30.592C114.134 30.592 113.838 30.496 113.63 30.304C113.422 30.096 113.318 29.792 113.318 29.392V18.664C113.318 18.28 113.422 17.984 113.63 17.776C113.838 17.568 114.134 17.464 114.518 17.464C114.918 17.464 115.214 17.568 115.406 17.776C115.614 17.968 115.718 18.264 115.718 18.664V29.392C115.718 29.776 115.614 30.072 115.406 30.28C115.214 30.488 114.918 30.592 114.518 30.592ZM126.454 30.592C126.102 30.592 125.806 30.472 125.566 30.232C125.342 29.992 125.23 29.696 125.23 29.344V13.096C125.23 12.744 125.35 12.448 125.59 12.208C125.83 11.968 126.118 11.848 126.454 11.848C126.806 11.848 127.102 11.968 127.342 12.208C127.582 12.448 127.702 12.744 127.702 13.096V28.096H136.39C136.742 28.096 137.038 28.216 137.278 28.456C137.518 28.696 137.638 28.992 137.638 29.344C137.638 29.696 137.518 29.992 137.278 30.232C137.038 30.472 136.742 30.592 136.39 30.592H126.454ZM141.853 30.592C141.501 30.592 141.205 30.48 140.965 30.256C140.741 30.016 140.629 29.72 140.629 29.368V18.688C140.629 18.32 140.741 18.024 140.965 17.8C141.205 17.576 141.501 17.464 141.853 17.464C142.221 17.464 142.517 17.576 142.741 17.8C142.965 18.024 143.077 18.32 143.077 18.688V29.368C143.077 29.72 142.965 30.016 142.741 30.256C142.517 30.48 142.221 30.592 141.853 30.592ZM141.853 15.328C141.421 15.328 141.045 15.176 140.725 14.872C140.421 14.552 140.269 14.176 140.269 13.744C140.269 13.312 140.421 12.944 140.725 12.64C141.045 12.32 141.421 12.16 141.853 12.16C142.285 12.16 142.653 12.32 142.957 12.64C143.277 12.944 143.437 13.312 143.437 13.744C143.437 14.176 143.277 14.552 142.957 14.872C142.653 15.176 142.285 15.328 141.853 15.328ZM152.407 30.688C151.287 30.688 150.247 30.52 149.287 30.184C148.343 29.832 147.607 29.392 147.079 28.864C146.839 28.608 146.735 28.32 146.767 28C146.815 27.664 146.975 27.392 147.247 27.184C147.567 26.928 147.879 26.824 148.183 26.872C148.503 26.904 148.775 27.04 148.999 27.28C149.271 27.584 149.703 27.872 150.295 28.144C150.903 28.4 151.575 28.528 152.311 28.528C153.239 28.528 153.943 28.376 154.423 28.072C154.919 27.768 155.175 27.376 155.191 26.896C155.207 26.416 154.975 26 154.495 25.648C154.031 25.296 153.175 25.008 151.927 24.784C150.311 24.464 149.135 23.984 148.399 23.344C147.679 22.704 147.319 21.92 147.319 20.992C147.319 20.176 147.559 19.504 148.039 18.976C148.519 18.432 149.135 18.032 149.887 17.776C150.639 17.504 151.423 17.368 152.239 17.368C153.295 17.368 154.231 17.536 155.047 17.872C155.863 18.208 156.511 18.672 156.991 19.264C157.215 19.52 157.319 19.792 157.303 20.08C157.287 20.352 157.151 20.584 156.895 20.776C156.639 20.952 156.335 21.008 155.983 20.944C155.631 20.88 155.335 20.736 155.095 20.512C154.695 20.128 154.263 19.864 153.799 19.72C153.335 19.576 152.799 19.504 152.191 19.504C151.487 19.504 150.887 19.624 150.391 19.864C149.911 20.104 149.671 20.456 149.671 20.92C149.671 21.208 149.743 21.472 149.887 21.712C150.047 21.936 150.351 22.144 150.799 22.336C151.247 22.512 151.903 22.688 152.767 22.864C153.967 23.104 154.911 23.408 155.599 23.776C156.303 24.144 156.807 24.576 157.111 25.072C157.415 25.552 157.567 26.112 157.567 26.752C157.567 27.488 157.367 28.152 156.967 28.744C156.583 29.336 156.007 29.808 155.239 30.16C154.487 30.512 153.543 30.688 152.407 30.688ZM165.438 30.592C164.638 30.592 163.918 30.392 163.278 29.992C162.638 29.576 162.134 29.016 161.766 28.312C161.398 27.608 161.214 26.816 161.214 25.936V14.488C161.214 14.136 161.326 13.848 161.55 13.624C161.774 13.4 162.062 13.288 162.414 13.288C162.766 13.288 163.054 13.4 163.278 13.624C163.502 13.848 163.614 14.136 163.614 14.488V25.936C163.614 26.576 163.79 27.112 164.142 27.544C164.494 27.976 164.926 28.192 165.438 28.192H166.254C166.542 28.192 166.782 28.304 166.974 28.528C167.182 28.752 167.286 29.04 167.286 29.392C167.286 29.744 167.15 30.032 166.878 30.256C166.622 30.48 166.286 30.592 165.87 30.592H165.438ZM160.11 20.008C159.774 20.008 159.502 19.912 159.294 19.72C159.086 19.528 158.982 19.288 158.982 19C158.982 18.68 159.086 18.424 159.294 18.232C159.502 18.04 159.774 17.944 160.11 17.944H165.654C165.99 17.944 166.262 18.04 166.47 18.232C166.678 18.424 166.782 18.68 166.782 19C166.782 19.288 166.678 19.528 166.47 19.72C166.262 19.912 165.99 20.008 165.654 20.008H160.11Z" fill="black"/>
</svg>
